<svg version="1.1" xmlns="http://www.w3.org/2000/svg" xmlns:xlink="http://www.w3.org/1999/xlink" width="496.81659" height="496.81658" viewBox="0,0,496.81659,496.81658"><defs><linearGradient x1="210.75713" y1="166.09724" x2="188.1369" y2="135.3696" gradientUnits="userSpaceOnUse" id="color-1"><stop offset="0" stop-color="#000000" stop-opacity="0.8"/><stop offset="1" stop-color="#000000" stop-opacity="0"/></linearGradient><linearGradient x1="267.82378" y1="195.15234" x2="290.44398" y2="225.87999" gradientUnits="userSpaceOnUse" id="color-2"><stop offset="0" stop-color="#000000" stop-opacity="0.8"/><stop offset="1" stop-color="#000000" stop-opacity="0"/></linearGradient></defs><g transform="translate(8.40829,68.40828)"><g data-paper-data="{&quot;isPaintingLayer&quot;:true}" fill-rule="nonzero" stroke="none" stroke-linecap="butt" stroke-linejoin="miter" stroke-miterlimit="10" stroke-dasharray="" stroke-dashoffset="0" style="mix-blend-mode: normal"><g><path d="M439.26839,-68.40828c27.14876,0 49.13991,21.98975 49.13991,49.13849c0,89.58959 0,308.94862 0,398.44777c0,27.14876 -21.99115,49.23032 -49.13991,49.23032c-89.58958,0 -308.94862,0 -398.44777,0c-27.23919,0 -49.22891,-22.0816 -49.22891,-49.23032c0,-89.49917 0,-308.85818 0,-398.44777c0,-27.14876 21.98974,-49.13848 49.22892,-49.13848c89.49917,0 308.85819,0 398.44778,0z" fill="#002b39" stroke-width="1"/><g><path d="M302.23402,285.19789c0,0 -2.82919,-0.29271 -8.18341,-3.55379c-5.09337,-3.10222 -12.60119,-7.78036 -12.60119,-7.78036l-237.1522,-200.30434h123.9295c0,0 2.36444,-0.47526 10.58279,3.57421c8.21834,4.04949 19.64396,11.3196 19.64396,11.3196l237.15223,196.74468z" data-paper-data="{&quot;index&quot;:null}" fill="#41afd3" stroke-width="0"/><path d="M151.83141,164.05509l71.65479,-54.70796l26.97985,22.80752l-68.57166,57.51458z" data-paper-data="{&quot;index&quot;:null}" fill="url(#color-1)" stroke-width="1" opacity="0.75"/><path d="M327.6658,196.50727l-72.5711,55.39521l-25.68176,-23.26568l69.48793,-57.81999z" fill="url(#color-2)" stroke-width="1" opacity="0.75"/><path d="M44.29718,285.19789l237.15223,-196.74466c0,0 11.42561,-7.27011 19.64395,-11.3196c8.21834,-4.04949 10.58279,-3.5742 10.58279,-3.5742h123.92952l-237.15222,200.30434c0,0 -7.50778,4.67816 -12.60119,7.78036c-5.35422,3.26108 -8.1834,3.55379 -8.1834,3.55379z" data-paper-data="{&quot;index&quot;:null}" fill="#41afd3" stroke-width="0"/><path d="M356.57558,284.66797c0,0 36.16434,-51.51233 36.58678,-104.3601c0.43219,-54.06308 -36.48957,-106.74845 -36.48957,-106.74845l78.16788,0.55036c0,0 35.29685,37.75918 35.30045,106.19771c0.00398,74.9397 -35.25406,104.89042 -35.25406,104.89042z" data-paper-data="{&quot;index&quot;:null}" fill="#4fd4ff" stroke-width="0"/><path d="M44.08718,285.19789c0,0 -35.25803,-29.95074 -35.25405,-104.89042c0.0036,-68.43853 35.30045,-106.19771 35.30045,-106.19771l78.16788,-0.55036c0,0 -36.92172,52.68535 -36.48957,106.74846c0.42246,52.84779 36.58678,104.3601 36.58678,104.3601z" fill="#4fd4ff" stroke-width="0"/></g></g></g></g></svg>