<svg version="1.1" xmlns="http://www.w3.org/2000/svg" xmlns:xlink="http://www.w3.org/1999/xlink" width="1045.5964" height="479.73682" viewBox="0,0,1045.5964,479.73682"><g transform="translate(277.1198,61.29621)"><g data-paper-data="{&quot;isPaintingLayer&quot;:true}" fill="#ffffff" fill-rule="nonzero" stroke="none" stroke-width="0" stroke-linecap="butt" stroke-linejoin="miter" stroke-miterlimit="10" stroke-dasharray="" stroke-dashoffset="0" style="mix-blend-mode: normal"><path d="M387.89994,418.44056c0,0 -6.41262,-0.66345 -18.54844,-8.05498c-11.54458,-7.03147 -28.56174,-17.63491 -28.56174,-17.63491l-537.52699,-454.00795h280.89745c0,0 5.35922,-1.07723 23.98684,8.10127c18.62762,9.17854 44.52481,25.6569 44.52481,25.6569l537.52704,445.93967z" data-paper-data="{&quot;index&quot;:null}"/><path d="M-196.73731,418.44056l537.52704,-445.93962c0,0 25.89718,-16.47836 44.52481,-25.6569c18.62762,-9.17854 23.98684,-8.10127 23.98684,-8.10127h280.89749l-537.52704,454.00795c0,0 -17.01706,10.60349 -28.56174,17.63491c-12.13582,7.39153 -18.54844,8.05498 -18.54844,8.05498z" data-paper-data="{&quot;index&quot;:null}"/><path d="M511.07002,417.23945c0,0 81.96976,-116.75737 82.92726,-236.54162c0.97959,-122.53888 -82.70693,-241.95506 -82.70693,-241.95506l177.17458,1.24744c0,0 80.00351,85.58461 80.01167,240.70675c0.00902,169.85763 -79.90652,237.74364 -79.90652,237.74364z" data-paper-data="{&quot;index&quot;:null}"/><path d="M-197.21328,418.44056c0,0 -79.91554,-67.88606 -79.90652,-237.74364c0.00816,-155.12214 80.01167,-240.70675 80.01167,-240.70675l177.17458,-1.24744c0,0 -83.68643,119.41613 -82.70693,241.95506c0.95754,119.7843 82.92726,236.54162 82.92726,236.54162z"/></g></g></svg>