<svg xmlns="http://www.w3.org/2000/svg" xmlns:xlink="http://www.w3.org/1999/xlink" width="128" height="128" version="1.0"><title>Adwaita Icon Template</title><defs><linearGradient id="prefix__b"><stop offset="0" stop-color="#2d2839"/><stop offset="1" stop-color="#282433"/></linearGradient><linearGradient id="prefix__c"><stop offset="0" stop-color="#fff"/><stop offset="1" stop-color="#fff" stop-opacity=".094"/></linearGradient><linearGradient id="prefix__a"><stop offset="0" stop-color="#77767b"/><stop offset=".05" stop-color="#c0bfbc"/><stop offset=".1" stop-color="#9a9996"/><stop offset=".9" stop-color="#9a9996"/><stop offset=".95" stop-color="#c0bfbc"/><stop offset="1" stop-color="#77767b"/></linearGradient><linearGradient id="prefix__d" x1="48" x2="464" y1="44" y2="44" gradientUnits="userSpaceOnUse" xlink:href="#prefix__a"/><linearGradient id="prefix__f" x1="70.347" x2="70.347" y1="245.395" y2="269.137" gradientUnits="userSpaceOnUse" xlink:href="#prefix__b"/><radialGradient id="prefix__e" cx="64" cy="194.19" r="44" fx="64" fy="194.19" gradientTransform="matrix(-4.72727 0 0 -1.63636 238.545 49.766)" gradientUnits="userSpaceOnUse" xlink:href="#prefix__c"/></defs><g transform="translate(0 -172)"><rect style="marker:none" width="416" height="376" x="48" y="-124" rx="32" ry="32" transform="matrix(.25 0 0 .25 0 225)" fill="url(#prefix__d)"/><rect width="416" height="384" x="48" y="-164" rx="32" ry="32" transform="matrix(.25 0 0 .25 0 225)" style="marker:none" fill="#deddda"/><rect width="96" height="88" x="16" y="-276" rx="4" ry="4" transform="scale(1 -1)" style="marker:none" fill="#241f31"/><path style="marker:none" transform="scale(-1)" d="M-108-272h88v78h-88z" opacity=".05" fill="url(#prefix__e)"/><path style="line-height:1.25;-inkscape-font-specification:&quot;Source Code Pro, Bold&quot;;font-variant-ligatures:normal;font-variant-caps:normal;font-variant-numeric:normal;font-feature-settings:normal;text-align:start" d="M44.012 210.888 30 203.272V208l9.71 4.63v.142L30 218v4.728l14.012-8.214zM48 226v4h16v-4z" transform="translate(-2 -2)" font-weight="700" font-family="Source Code Pro" letter-spacing="0" word-spacing="0" fill="#fff"/><path style="marker:none" d="M100 244h4v4h-4zm-8 0h4v4h-4zm-8 0h4v4h-4zm-8 0h4v4h-4zm-8 0h4v4h-4zm-8 0h4v4h-4zm-8 0h4v4h-4zm-8 0h4v4h-4zm-8 0h4v4h-4zm-8 0h4v4h-4zm-8 0h4v4h-4zm84 4h4v4h-4zm-8 0h4v4h-4zm-8 0h4v4h-4zm-8 0h4v4h-4zm-8 0h4v4h-4zm-8 0h4v4h-4zm-8 0h4v4h-4zm-8 0h4v4h-4zm-8 0h4v4h-4zm-8 0h4v4h-4zm-8 0h4v4h-4zm76 4h4v4h-4zm-8 0h4v4h-4zm-8 0h4v4h-4zm-8 0h4v4h-4zm-8 0h4v4h-4zm-8 0h4v4h-4zm-8 0h4v4h-4zm-8 0h4v4h-4zm-8 0h4v4h-4zm-8 0h4v4h-4zm-8 0h4v4h-4zm84 4h4v4h-4zm-8 0h4v4h-4zm-8 0h4v4h-4zm-8 0h4v4h-4zm-8 0h4v4h-4zm-8 0h4v4h-4zm-8 0h4v4h-4zm-8 0h4v4h-4zm-8 0h4v4h-4zm-8 0h4v4h-4zm-8 0h4v4h-4zm76 4h4v4h-4zm-8 0h4v4h-4zm-8 0h4v4h-4zm-8 0h4v4h-4zm-8 0h4v4h-4zm-8 0h4v4h-4zm-8 0h4v4h-4zm-8 0h4v4h-4zm-8 0h4v4h-4zm-8 0h4v4h-4zm-8 0h4v4h-4zm84 4h4v4h-4zm-8 0h4v4h-4zm-8 0h4v4h-4zm-8 0h4v4h-4zm-8 0h4v4h-4zm-8 0h4v4h-4zm-8 0h4v4h-4zm-8 0h4v4h-4zm-8 0h4v4h-4zm-8 0h4v4h-4zm-8 0h4v4h-4zm76 4h4v4h-4zm-8 0h4v4h-4zm-8 0h4v4h-4zm-8 0h4v4h-4zm-8 0h4v4h-4zm-8 0h4v4h-4zm-8 0h4v4h-4zm-8 0h4v4h-4zm-8 0h4v4h-4zm-8 0h4v4h-4zm-8 0h4v4h-4z" fill="url(#prefix__f)"/></g></svg>