<?xml version="1.0" standalone="no"?>
<!DOCTYPE svg PUBLIC "-//W3C//DTD SVG 20010904//EN"
 "http://www.w3.org/TR/2001/REC-SVG-20010904/DTD/svg10.dtd">
<svg version="1.0" xmlns="http://www.w3.org/2000/svg"
 width="643.000000pt" height="643.000000pt" viewBox="0 0 643.000000 643.000000"
 preserveAspectRatio="xMidYMid meet">
<metadata>
Created by potrace 1.14, written by Peter Selinger 2001-2017
</metadata>
<g transform="translate(0.000000,643.000000) scale(0.100000,-0.100000)"
fill="#000000" stroke="none">
<path d="M4564 5760 c-88 -12 -262 -83 -349 -142 l-74 -50 -148 41 c-326 90
-452 106 -793 105 -350 -1 -574 -28 -827 -99 -67 -19 -128 -35 -135 -35 -7 0
-53 25 -103 55 -52 32 -130 69 -185 87 -83 28 -112 32 -230 36 -146 5 -277 -8
-402 -40 -264 -66 -565 -255 -712 -447 -169 -219 -340 -576 -430 -896 -64
-228 -112 -580 -109 -815 0 -99 22 -429 33 -495 52 -346 84 -491 141 -660 91
-267 266 -585 424 -775 92 -109 262 -272 323 -310 29 -18 51 -35 48 -38 -15
-14 222 -131 359 -177 96 -33 181 -45 337 -48 217 -5 396 2 377 15 -10 6 -3 7
20 3 19 -4 31 -3 28 2 -3 5 54 26 126 46 235 67 582 219 728 318 38 26 65 39
76 35 13 -5 1 -17 -49 -51 -70 -47 -362 -188 -466 -225 -34 -13 -61 -25 -58
-27 5 -5 157 54 251 97 39 18 111 52 162 75 51 24 130 71 176 104 46 34 87 61
91 61 5 0 22 -9 39 -21 l32 -21 -30 26 c-36 31 -41 31 -83 6 -43 -27 -48 -25
-22 7 20 26 21 27 2 46 -12 12 -38 21 -67 23 -73 6 -97 37 -52 67 l22 15 -20
22 c-11 12 -65 57 -120 99 -55 43 -143 124 -195 181 -196 212 -277 294 -349
352 -56 46 -73 55 -68 39 3 -11 3 -21 0 -21 -3 0 -47 39 -99 87 -99 90 -161
162 -131 150 11 -4 14 -2 10 9 -6 17 -29 19 -39 3 -4 -7 144 -162 374 -390
282 -280 360 -363 302 -319 -108 82 -400 360 -555 527 -70 76 -160 166 -199
201 -77 69 -87 82 -60 82 16 0 16 2 4 14 -12 11 -26 12 -70 4 -30 -5 -109 -10
-175 -10 -130 -1 -211 14 -317 57 -69 28 -270 146 -263 154 3 2 11 -1 17 -7
23 -23 31 -12 9 12 -13 14 -20 29 -16 35 3 6 2 11 -3 11 -5 0 -8 11 -7 25 2
14 -1 28 -7 31 -6 4 -5 10 3 15 10 6 11 9 2 9 -7 0 -13 7 -13 16 0 9 -5 12
-11 8 -7 -4 -10 -1 -7 7 9 23 -21 71 -78 126 -30 28 -54 56 -54 61 0 6 -7 13
-16 16 -9 3 -12 11 -8 18 5 8 0 7 -11 -2 -10 -8 -16 -10 -13 -5 4 6 4 16 0 21
-10 14 -125 79 -135 76 -4 -1 -18 3 -30 10 -12 7 -27 13 -33 14 -24 4 -67 52
-104 114 -67 114 -65 114 -65 -14 0 -117 8 -135 25 -55 l9 44 -4 -54 c-2 -30
-9 -57 -15 -61 -19 -12 -22 -95 -11 -298 13 -220 25 -310 72 -502 64 -262 194
-520 365 -719 198 -232 363 -350 581 -418 85 -26 97 -28 311 -28 158 0 212 -3
185 -9 -21 -5 -114 -10 -208 -10 -151 0 -180 3 -265 26 -214 58 -341 139 -539
341 -101 104 -181 209 -262 346 -83 139 -131 253 -183 434 -36 125 -44 145
-50 121 l-7 -28 -33 39 c-35 41 -47 83 -71 250 -1 11 -8 40 -15 65 -12 43 -18
127 -24 335 -2 83 3 132 22 208 1 4 2 19 2 33 0 14 4 23 9 20 4 -3 14 13 21
34 7 22 17 40 22 40 4 0 8 10 8 22 0 12 3 18 6 15 4 -4 6 -48 6 -99 -1 -62 2
-86 8 -73 5 11 9 70 9 130 1 114 14 202 56 368 25 96 42 143 51 134 2 -2 8
-64 14 -138 15 -224 70 -364 210 -532 141 -171 294 -280 478 -343 125 -43 198
-54 354 -54 76 0 129 -4 133 -10 4 -6 11 -41 16 -78 10 -68 69 -211 97 -234 8
-7 3 10 -12 39 -29 58 -31 68 -14 57 7 -5 9 -2 5 9 -7 19 17 41 38 34 25 -10
27 11 10 80 -15 61 -15 70 0 127 9 33 15 81 13 106 -3 45 -3 45 -36 -55 -18
-56 -43 -113 -56 -128 l-24 -28 -4 58 c-2 32 -1 94 4 138 14 154 127 323 288
430 37 24 145 85 241 135 l174 91 177 182 178 181 -28 29 c-73 78 -105 106
-115 104 -6 -1 -11 4 -12 10 0 7 -10 20 -23 28 -36 26 -206 218 -299 339 -47
61 -99 123 -117 138 -17 15 -26 28 -21 28 16 0 165 -148 222 -220 100 -127
130 -136 45 -13 -114 163 -174 228 -363 388 -19 17 -28 26 -19 20 55 -35 239
-197 301 -267 123 -135 332 -391 387 -473 54 -80 65 -122 37 -145 -8 -7 -15
-17 -15 -23 0 -6 -15 -27 -32 -46 -22 -23 -11 -16 29 18 78 65 121 118 207
250 38 56 89 124 114 150 26 25 56 58 67 73 58 73 359 399 450 486 101 97 315
265 428 336 213 134 499 230 729 243 227 13 432 -48 649 -192 166 -111 306
-283 430 -528 132 -262 216 -509 283 -832 51 -248 60 -337 59 -570 -3 -454
-83 -858 -263 -1317 -23 -60 -46 -106 -51 -103 -4 3 -16 -9 -25 -27 -23 -45
-77 -132 -153 -247 -231 -346 -567 -585 -926 -657 -111 -23 -416 -25 -545 -5
-186 29 -447 124 -640 233 -106 60 -241 205 -226 243 8 21 -69 -32 -113 -79
l-34 -35 80 -39 c89 -43 173 -99 173 -116 0 -26 52 -69 135 -111 94 -49 131
-74 80 -55 -16 6 -25 7 -20 2 11 -10 138 -62 152 -62 4 0 1 5 -7 11 -12 9 -12
10 3 5 10 -3 24 -6 30 -6 8 0 8 -3 -1 -9 -13 -8 1 -13 168 -62 112 -33 255
-49 440 -49 163 0 362 18 435 39 135 39 157 48 280 107 62 30 95 53 157 108 9
8 20 11 24 8 4 -4 4 -2 1 4 -4 6 32 41 79 80 243 195 442 484 594 863 40 99
114 338 138 446 64 284 70 322 77 435 4 58 10 160 14 228 17 266 -24 665 -99
952 -27 102 -90 295 -134 410 -84 216 -284 554 -395 666 -154 157 -377 273
-646 335 -102 23 -357 34 -461 19z m-1389 -70 c-18 -8 -18 -9 5 -10 14 -1 19
-4 12 -7 -18 -7 -44 5 -37 17 3 5 14 10 23 9 14 0 13 -2 -3 -9z m-1430 -45
c248 -53 515 -189 746 -381 143 -120 568 -568 637 -672 20 -30 2 -53 -24 -31
-16 13 -17 12 -7 -6 9 -15 7 -23 -9 -37 -12 -10 -24 -18 -28 -18 -9 0 -83 64
-170 146 -215 202 -504 427 -660 511 -93 50 -210 91 -330 114 -153 29 -386 24
-495 -11 -159 -50 -275 -129 -440 -294 -109 -110 -141 -149 -197 -245 -37 -62
-81 -150 -98 -195 -17 -44 -43 -108 -59 -141 -40 -82 -120 -367 -138 -490 -3
-22 -9 -49 -13 -59 -6 -19 -7 -18 -12 2 -4 12 -3 22 0 22 4 0 8 16 9 35 2 19
14 76 27 127 27 106 28 128 9 121 -18 -7 -17 50 1 85 25 48 135 306 141 332
l6 25 -21 -25 c-11 -14 -72 -128 -135 -255 -177 -354 -219 -528 -218 -895 0
-405 75 -745 251 -1138 96 -216 276 -478 434 -634 211 -208 443 -321 717 -348
219 -23 559 40 754 139 113 57 312 188 380 251 l51 47 -18 29 -19 29 24 -21
c13 -12 30 -19 37 -17 7 3 10 -1 7 -9 -3 -8 7 -26 23 -41 27 -26 28 -29 19
-90 l-10 -62 -109 -64 c-378 -220 -584 -288 -933 -307 -351 -19 -736 136
-1005 405 -58 58 -128 135 -155 171 -27 36 -58 74 -68 85 -11 11 -36 43 -57
70 -21 28 -49 63 -64 78 -14 15 -33 40 -41 55 -9 15 -24 41 -33 57 -31 51
-111 237 -142 331 -39 113 -104 371 -124 489 -52 302 -60 817 -17 1092 45 286
144 601 267 847 111 221 192 343 302 457 170 176 326 269 552 328 96 25 348
28 455 6z m1568 -31 c15 -3 27 -12 27 -20 0 -13 -20 -15 -117 -13 -154 2 -191
19 -78 34 80 11 115 11 168 -1z m195 -74 c239 -39 448 -92 437 -110 -4 -6 -19
-10 -34 -10 -16 0 -48 -7 -71 -15 -23 -8 -55 -15 -70 -15 -15 0 -37 -9 -50
-20 -21 -18 -119 -60 -141 -60 -6 0 -36 -12 -67 -26 -104 -47 -120 -54 -131
-54 -6 0 -11 -4 -11 -8 0 -5 -18 -17 -39 -27 -22 -9 -59 -35 -83 -56 -23 -21
-50 -39 -59 -39 -9 0 -19 -6 -22 -13 -5 -13 -54 -20 -142 -20 -64 0 -107 9
-160 32 -27 12 -63 28 -80 36 -16 7 -43 18 -60 23 -51 16 -132 74 -293 209
-88 75 -97 66 124 112 451 94 668 107 952 61z m-1507 -387 c13 -16 12 -17 -3
-4 -17 13 -22 21 -14 21 2 0 10 -8 17 -17z m-118 -67 c89 -27 187 -70 187 -84
0 -9 53 -73 99 -122 98 -103 216 -324 247 -465 22 -94 27 -351 8 -363 -7 -4
-14 -16 -17 -27 -4 -11 -4 23 -1 75 6 118 -11 263 -41 355 -46 137 -75 215
-90 242 -10 17 -14 20 -11 8 5 -18 5 -18 -7 -4 -7 10 -18 13 -27 8 -103 -53
-114 -56 -147 -38 -18 9 -30 19 -27 22 6 6 -34 31 -51 32 -5 0 -26 9 -45 19
l-35 18 41 -43 c73 -79 71 -85 -4 -11 -74 73 -141 114 -240 147 -44 14 -71 16
-155 10 -121 -9 -187 -25 -265 -64 -126 -64 -308 -213 -371 -306 -46 -68 -72
-143 -84 -244 -8 -68 -13 -89 -18 -71 -17 62 -5 -167 16 -280 2 -14 2 -19 -1
-12 -3 6 -10 10 -15 6 -5 -3 -9 1 -9 8 0 10 -2 10 -9 -1 -14 -21 -66 36 -86
94 -10 28 -19 95 -22 155 -5 90 -2 120 20 210 54 221 127 350 281 497 150 142
259 202 446 243 125 28 313 22 433 -14z m247 -111 c13 -14 21 -25 18 -25 -2 0
-15 11 -28 25 -13 14 -21 25 -18 25 2 0 15 -11 28 -25z m66 -57 l29 -33 -32
29 c-31 28 -38 36 -30 36 2 0 16 -15 33 -32z m-475 -98 c35 -11 87 -33 116
-50 64 -37 162 -127 186 -171 l18 -34 -21 25 c-73 84 -91 101 -101 94 -7 -4
-9 -3 -6 3 21 34 -247 159 -296 139 -7 -3 -6 -5 4 -5 11 -1 14 -9 11 -31 -5
-35 -4 -34 -57 -15 -59 21 -121 18 -200 -10 -38 -14 -71 -25 -72 -25 0 0 4 11
10 25 23 48 105 72 253 74 66 1 110 -5 155 -19z m-123 -99 c21 -11 22 -18 24
-134 0 -67 0 -131 -1 -142 -1 -11 0 -29 3 -40 5 -19 12 -20 156 -16 82 2 160
1 173 -3 36 -9 47 -46 45 -159 l-1 -102 -7 105 c-9 157 -26 166 -22 12 3 -104
1 -133 -13 -158 -16 -30 -20 -31 -98 -38 -45 -3 -119 -6 -165 -6 -75 0 -83 -2
-78 -17 3 -10 6 -79 7 -153 3 -161 -6 -188 -66 -208 -48 -16 -168 -10 -220 12
-35 15 -35 15 -35 78 0 35 5 103 11 151 9 76 8 91 -5 113 -16 24 -18 24 -170
24 -84 0 -156 3 -160 8 -4 4 -13 7 -19 7 -35 0 -32 274 3 318 18 21 24 22 161
19 79 -1 148 -7 155 -13 9 -7 19 -7 33 1 20 10 21 19 21 159 0 163 -1 160 66
186 45 17 167 15 202 -4z m293 -18 c13 -16 12 -17 -3 -4 -10 7 -18 15 -18 17
0 8 8 3 21 -13z m354 -13 c3 -5 1 -10 -4 -10 -6 0 -11 5 -11 10 0 6 2 10 4 10
3 0 8 -4 11 -10z m-1749 -417 c-8 -15 -15 -25 -16 -21 0 12 23 58 27 54 3 -2
-2 -17 -11 -33z m84 -33 c-11 -30 -19 -47 -20 -38 0 19 30 101 36 96 1 -2 -6
-28 -16 -58z m-116 -98 c3 -5 -1 -9 -9 -9 -8 0 -12 4 -9 9 3 4 7 8 9 8 2 0 6
-4 9 -8z m36 -32 c0 -5 -4 -10 -10 -10 -5 0 -10 5 -10 10 0 6 5 10 10 10 6 0
10 -4 10 -10z m126 -308 c-5 -5 -23 81 -30 143 -3 28 3 8 14 -44 11 -52 18
-97 16 -99z m1197 161 c-18 -2 -48 -2 -65 0 -18 2 -4 4 32 4 36 0 50 -2 33 -4z
m-1380 -234 c-5 -5 -7 7 -4 29 5 34 6 35 9 8 2 -16 0 -32 -5 -37z m914 -89
c26 -11 40 -19 30 -20 -27 0 -80 25 -97 46 -14 17 -14 18 2 6 9 -8 38 -22 65
-32z m201 -27 c-10 -2 -28 -2 -40 0 -13 2 -5 4 17 4 22 1 32 -1 23 -4z m-103
-49 c61 -3 129 -1 152 4 24 5 40 6 37 1 -3 -5 -17 -9 -32 -9 -21 0 -24 -2 -12
-10 25 -16 -161 -12 -237 6 -37 8 -70 18 -73 21 -3 3 9 3 25 -1 17 -4 80 -9
140 -12z m-525 -549 c13 -14 21 -25 18 -25 -2 0 -15 11 -28 25 -13 14 -21 25
-18 25 2 0 15 -11 28 -25z m-31 -30 c9 -6 32 -26 52 -45 66 -65 107 -100 118
-100 6 0 10 -5 8 -12 -3 -14 135 -115 208 -152 30 -15 100 -36 162 -47 120
-23 179 -22 331 7 l92 18 40 -39 c36 -35 38 -40 23 -50 -11 -6 -89 -10 -193
-10 -203 1 -339 24 -450 78 -36 18 -68 33 -71 35 -4 2 -5 -14 -2 -34 7 -50
-14 -108 -54 -152 -18 -20 -33 -41 -33 -47 0 -7 -8 -19 -19 -29 -10 -9 -35
-53 -55 -99 -46 -102 -99 -209 -108 -222 -4 -5 -20 -25 -34 -43 l-27 -34 -44
79 c-77 140 -132 358 -118 472 10 81 63 333 92 434 4 15 10 9 32 -25 33 -52
195 -203 252 -236 23 -12 53 -30 67 -39 35 -21 21 -8 -48 47 -98 78 -280 252
-280 266 0 15 1 15 59 -21z m82 -12 c13 -16 12 -17 -3 -4 -10 7 -18 15 -18 17
0 8 8 3 21 -13z m760 -568 c65 -69 68 -74 24 -38 -59 48 -86 77 -110 118 -21
34 -20 33 86 -80z"/>
<path d="M4008 5653 c7 -3 16 -2 19 1 4 3 -2 6 -13 5 -11 0 -14 -3 -6 -6z"/>
<path d="M4130 5640 c-9 -6 -10 -10 -3 -10 6 0 15 5 18 10 8 12 4 12 -15 0z"/>
<path d="M2248 5633 c6 -2 18 -2 25 0 6 3 1 5 -13 5 -14 0 -19 -2 -12 -5z"/>
<path d="M4088 5633 c7 -3 16 -2 19 1 4 3 -2 6 -13 5 -11 0 -14 -3 -6 -6z"/>
<path d="M4490 5286 c-232 -50 -419 -148 -730 -385 -191 -145 -263 -206 -422
-359 l-77 -74 51 -76 c28 -43 76 -108 106 -146 l56 -70 12 47 c18 70 116 199
378 496 133 151 200 218 321 322 117 100 200 158 105 73 -123 -110 -248 -239
-334 -344 -47 -58 -86 -108 -86 -113 0 -4 32 28 72 73 39 44 73 78 76 76 2 -3
28 15 58 40 30 24 58 44 62 44 3 0 -19 -26 -49 -57 -31 -32 -75 -83 -100 -113
-65 -80 -160 -184 -172 -189 -6 -2 6 19 27 48 21 28 35 51 33 51 -3 0 -30 -33
-60 -72 -30 -40 -116 -137 -191 -215 -75 -78 -136 -148 -136 -156 0 -7 30 -42
66 -77 59 -58 178 -211 349 -445 32 -44 55 -72 51 -61 -6 18 -5 18 20 1 14 -9
27 -15 29 -13 2 2 -19 30 -46 63 -95 113 -109 130 -180 220 -83 105 -110 151
-49 82 76 -85 232 -192 424 -290 155 -78 191 -101 253 -161 78 -74 120 -145
143 -242 9 -42 9 -56 -2 -73 -20 -33 -35 -25 -47 27 -17 67 -101 214 -101 175
0 -4 9 -35 19 -68 35 -112 44 -199 33 -336 -10 -114 -14 -134 -52 -220 -23
-52 -51 -116 -62 -143 -21 -53 -135 -188 -177 -211 -14 -8 -55 -42 -91 -76
-36 -34 -159 -148 -275 -254 -203 -186 -355 -336 -355 -350 0 -3 6 -3 13 2 6
4 15 8 19 8 23 0 830 787 893 871 55 72 68 98 40 74 -12 -10 -12 -7 1 19 9 17
23 31 31 31 14 0 13 -3 -3 -21 -14 -16 -15 -21 -4 -17 17 5 98 119 136 192 21
39 53 153 54 188 0 4 39 5 88 2 455 -32 880 272 1022 732 28 92 40 169 49 321
5 72 12 137 17 144 5 8 12 -13 20 -56 7 -39 26 -144 43 -235 17 -91 34 -208
37 -260 11 -176 19 -668 12 -663 -5 2 -7 -20 -6 -49 l1 -53 7 45 c4 25 8 38
10 30 19 -96 27 803 9 985 -6 61 -21 141 -35 180 -94 279 -126 362 -173 453
-30 56 -61 108 -69 114 -7 7 -1 -10 15 -38 25 -43 40 -74 98 -209 14 -32 27
-105 19 -105 -3 0 -21 35 -41 78 -143 313 -206 415 -322 524 -125 117 -288
203 -472 248 -110 27 -364 36 -459 16z m285 -174 c31 -6 36 -9 21 -15 -11 -4
-16 -13 -12 -23 4 -11 -14 -35 -55 -75 -33 -32 -65 -59 -70 -59 -18 0 -125
-81 -150 -112 -47 -61 -99 -109 -109 -103 -6 4 -9 3 -8 -2 4 -11 -39 -53 -46
-45 -3 3 -6 0 -6 -6 0 -6 -9 -14 -20 -17 -11 -4 -18 -10 -15 -15 3 -4 -2 -11
-11 -14 -28 -11 -122 -76 -156 -109 -19 -18 -50 -54 -70 -82 -20 -27 -49 -61
-65 -75 -28 -26 -57 -70 -80 -125 -12 -27 -13 -22 -8 47 13 181 112 445 214
571 98 121 308 227 508 256 75 11 90 11 138 3z m-49 -155 c-10 -7 -33 -23 -50
-37 -20 -16 -26 -18 -16 -6 14 18 70 57 80 55 3 0 -3 -6 -14 -12z m211 -33
c72 -42 116 -147 99 -237 -10 -56 -63 -125 -120 -157 -40 -24 -63 -30 -109
-30 -32 0 -63 5 -70 10 -7 6 -24 19 -40 31 -15 11 -39 41 -54 66 -33 57 -38
167 -9 223 62 120 190 159 303 94z m-455 -539 c81 -57 106 -150 72 -266 -22
-72 -46 -103 -94 -123 -49 -20 -139 -21 -183 -2 -44 18 -121 104 -137 150 -30
92 17 200 110 249 48 25 63 28 122 25 55 -3 75 -9 110 -33z m962 -2 c63 -44
86 -93 86 -183 0 -93 -29 -163 -86 -206 -33 -26 -45 -29 -108 -28 -73 0 -149
25 -189 62 -67 60 -92 204 -48 276 46 74 142 119 240 112 50 -3 72 -10 105
-33z m419 -181 c17 -18 13 -67 -4 -56 -5 3 -9 0 -9 -6 0 -7 7 -9 16 -6 20 8
41 -4 24 -14 -9 -5 -9 -21 -1 -65 15 -78 6 -83 -10 -6 -7 34 -16 61 -21 61 -4
0 -12 17 -17 38 -20 69 -11 90 22 54z m-2273 -17 c-6 -8 -8 -20 -4 -26 4 -8 3
-9 -4 -5 -16 10 -15 33 1 39 19 8 20 8 7 -8z m1336 -323 c83 -43 124 -109 124
-200 0 -80 -38 -141 -119 -193 -51 -33 -127 -39 -185 -15 -49 20 -114 83 -121
116 -4 16 -15 41 -27 55 -16 20 -18 33 -13 68 16 96 70 157 165 188 40 13 133
3 176 -19z"/>
<path d="M5850 4180 c0 -5 5 -10 11 -10 5 0 7 5 4 10 -3 6 -8 10 -11 10 -2 0
-4 -4 -4 -10z"/>
<path d="M5793 4185 c0 -22 2 -30 4 -17 2 12 2 30 0 40 -3 9 -5 -1 -4 -23z"/>
<path d="M5986 4050 c9 -85 10 -211 1 -250 -5 -19 -11 -116 -13 -215 -2 -99
-4 -187 -4 -195 -1 -8 2 -57 6 -107 6 -84 5 -93 -11 -93 -13 0 -15 -4 -8 -12
13 -16 13 -48 1 -48 -5 0 -9 -10 -8 -22 1 -13 1 -25 0 -28 -5 -13 -10 -61 -15
-135 -6 -106 -15 -155 -26 -155 -6 0 -7 -4 -4 -10 3 -5 -1 -10 -9 -10 -10 0
-16 9 -17 23 0 12 -9 -21 -19 -73 -26 -139 -45 -205 -100 -350 -96 -255 -224
-461 -386 -625 -161 -161 -332 -274 -484 -319 -130 -39 -352 -57 -445 -36 -32
8 -25 8 37 5 100 -6 265 10 363 35 107 27 245 95 340 167 109 83 279 260 347
363 223 337 326 697 343 1200 3 85 7 214 10 285 l4 130 -34 -73 c-67 -144
-225 -397 -225 -363 0 7 -12 -1 -26 -16 -14 -15 -11 -8 7 15 19 24 44 60 57
80 18 30 14 27 -20 -13 -99 -117 -306 -314 -378 -360 -99 -64 -213 -122 -275
-141 -89 -27 -220 -33 -361 -18 -203 21 -181 28 -251 -78 -33 -51 -96 -131
-140 -178 -154 -166 -443 -441 -668 -637 l-60 -52 65 -63 c136 -133 429 -286
656 -344 216 -54 474 -59 659 -10 369 96 697 415 912 890 65 143 152 402 194
574 64 266 105 745 80 947 -17 137 -49 271 -77 325 l-24 45 6 -55z m-446
-1028 c0 -4 -6 -14 -12 -21 -9 -10 -10 -12 -1 -7 14 7 30 -18 55 -84 15 -41
17 -42 17 -16 2 63 10 14 27 -154 19 -200 12 -317 -30 -483 -22 -85 -73 -203
-108 -250 -13 -18 -15 -16 -28 22 -7 23 -17 41 -22 41 -4 0 -7 3 -6 8 1 4 -4
20 -10 35 -7 16 -12 34 -12 41 0 6 -5 17 -10 22 -6 6 -13 21 -15 35 -10 46
-14 64 -23 94 -5 17 -7 36 -4 44 2 8 0 11 -5 8 -5 -3 -8 9 -8 26 0 18 -3 37
-7 43 -5 6 -9 29 -11 52 -1 22 -4 38 -7 37 -6 -3 -6 28 -2 183 1 40 6 61 12
57 6 -4 9 -2 8 3 -2 6 18 34 43 63 68 81 69 90 4 29 -116 -109 -131 -122 -183
-156 -71 -48 -253 -109 -385 -130 -94 -15 -129 -16 -259 -7 -82 6 -152 14
-155 17 -4 4 3 19 14 34 24 32 38 32 207 12 234 -29 452 28 631 163 33 25 107
91 165 146 100 96 120 111 120 93z m-856 -554 c-19 -35 -51 -79 -71 -98 l-36
-35 35 50 c19 28 49 71 67 98 18 26 34 47 36 47 2 0 -12 -28 -31 -62z"/>
<path d="M2594 3903 c-174 -197 -343 -365 -355 -357 -6 3 -3 15 8 27 10 12 2
9 -18 -8 -21 -17 -60 -48 -88 -70 -68 -54 -165 -196 -181 -267 -32 -145 -23
-242 38 -371 57 -122 215 -310 367 -440 44 -37 91 -78 105 -91 14 -12 45 -37
70 -55 l45 -33 -40 36 c-22 20 -35 36 -30 36 6 0 17 -6 25 -12 8 -7 4 0 -10
15 -21 24 -25 38 -23 85 0 31 6 58 12 60 6 2 11 10 11 18 0 8 5 14 10 14 6 0
10 6 10 14 0 8 7 17 16 20 8 3 12 10 9 16 -3 6 1 13 9 16 13 5 36 54 42 93 2
8 7 17 13 20 6 4 6 12 1 20 -4 8 -6 20 -3 28 3 8 -7 28 -23 46 -20 21 -10 16
31 -17 33 -27 77 -67 99 -90 l39 -41 -39 50 c-21 28 -61 78 -89 111 -95 116
-145 182 -145 190 0 4 12 20 26 35 l27 28 42 -57 c23 -31 80 -100 126 -152 46
-52 115 -135 154 -185 108 -140 257 -304 277 -305 4 0 23 14 41 30 36 31 53
39 41 18 -4 -7 7 0 24 16 18 16 30 32 27 34 -2 3 28 39 67 81 39 42 105 118
146 170 41 51 116 140 167 197 51 56 98 111 104 121 10 17 13 15 41 -15 16
-18 30 -38 30 -45 0 -7 -60 -74 -132 -149 -73 -75 -151 -159 -173 -188 -171
-223 -174 -228 -152 -225 50 8 73 16 83 30 6 8 14 11 18 7 4 -4 7 -2 6 3 -4
20 0 35 10 35 6 0 20 9 32 20 12 10 26 17 31 13 6 -3 7 -1 3 5 -3 6 3 13 14
17 11 4 18 10 15 15 -6 10 35 25 108 36 20 4 40 10 43 15 3 5 16 9 29 9 13 0
26 4 29 8 3 5 49 9 103 11 83 2 102 -1 119 -16 49 -43 44 -51 -144 -235 -197
-191 -189 -190 28 2 151 134 366 354 409 418 13 20 32 46 42 57 37 43 59 137
58 257 0 62 -4 122 -9 133 -8 18 -9 18 -10 -5 l-1 -25 -14 25 c-7 14 -17 25
-22 26 -4 0 -21 6 -38 14 -79 34 -94 40 -108 40 -9 0 -19 5 -22 10 -4 6 -10 8
-15 5 -5 -3 -16 8 -25 25 -8 16 -18 30 -20 30 -3 0 5 -21 19 -47 37 -76 74
-184 90 -273 15 -78 22 -251 11 -262 -9 -8 -76 54 -455 424 -417 407 -630 621
-630 633 0 5 38 -28 84 -73 46 -45 87 -82 91 -82 4 0 -30 41 -76 90 -45 50
-87 90 -93 90 -7 0 -30 -21 -51 -47 -69 -84 -453 -482 -615 -638 -85 -82 -205
-201 -267 -262 -62 -62 -114 -113 -117 -113 -2 0 -6 9 -9 20 -3 13 -1 18 6 13
8 -4 8 -1 -1 9 -9 11 -11 54 -9 154 2 138 3 140 39 214 20 41 75 140 122 219
47 78 86 145 86 148 0 12 89 136 163 226 153 187 183 236 61 100z m1176 -1154
c-30 -28 -103 -93 -162 -146 -59 -52 -119 -109 -134 -126 l-25 -32 14 30 c25
51 328 327 356 325 3 -1 -19 -23 -49 -51z m-480 -322 c0 -2 -10 -12 -22 -23
l-23 -19 19 23 c18 21 26 27 26 19z m-785 -115 c-3 -3 -11 0 -18 7 -9 10 -8
11 6 5 10 -3 15 -9 12 -12z"/>
<path d="M473 3535 c0 -22 2 -30 4 -17 2 12 2 30 0 40 -3 9 -5 -1 -4 -23z"/>
<path d="M453 3355 c0 -33 2 -45 4 -27 2 18 2 45 0 60 -2 15 -4 0 -4 -33z"/>
<path d="M453 3110 c0 -36 2 -50 4 -32 2 17 2 47 0 65 -2 17 -4 3 -4 -33z"/>
<path d="M462 2945 c0 -16 2 -22 5 -12 2 9 2 23 0 30 -3 6 -5 -1 -5 -18z"/>
<path d="M5892 2930 c0 -19 2 -27 5 -17 2 9 2 25 0 35 -3 9 -5 1 -5 -18z"/>
<path d="M5882 2845 c0 -16 2 -22 5 -12 2 9 2 23 0 30 -3 6 -5 -1 -5 -18z"/>
<path d="M472 2820 c0 -14 2 -19 5 -12 2 6 2 18 0 25 -3 6 -5 1 -5 -13z"/>
<path d="M482 2760 c0 -19 2 -27 5 -17 2 9 2 25 0 35 -3 9 -5 1 -5 -18z"/>
<path d="M491 2704 c0 -11 3 -14 6 -6 3 7 2 16 -1 19 -3 4 -6 -2 -5 -13z"/>
<path d="M2907 2505 c17 -22 36 -51 43 -65 22 -41 92 -125 103 -122 5 2 19 -5
30 -15 51 -44 -56 84 -167 201 l-38 41 29 -40z"/>
<path d="M2670 2170 c25 -22 49 -40 54 -40 12 0 11 0 -49 44 l-50 37 45 -41z"/>
<path d="M3359 1413 c31 -24 253 -143 266 -143 6 0 -42 28 -105 61 -63 33
-131 70 -150 80 -28 16 -30 17 -11 2z"/>
<path d="M2400 1140 c-47 -15 -81 -28 -76 -29 14 -1 176 49 176 54 0 7 -8 5
-100 -25z"/>
<path d="M2248 1093 c7 -3 16 -2 19 1 4 3 -2 6 -13 5 -11 0 -14 -3 -6 -6z"/>
<path d="M2198 1083 c7 -3 16 -2 19 1 4 3 -2 6 -13 5 -11 0 -14 -3 -6 -6z"/>
</g>
</svg>
