<svg xmlns="http://www.w3.org/2000/svg" width="64" height="64"><path d="M45 31.5a17.5 17.5 0 1 1-35 0 17.5 17.5 0 1 1 35 0z" transform="matrix(.54632 0 0 .54632 -3.304 -5.649)" fill="#b71c1c" fill-opacity="1" stroke="#fff" stroke-width="0" stroke-miterlimit="4" stroke-dasharray="none" stroke-dashoffset="0"/><path d="M45 31.5a17.5 17.5 0 1 1-35 0 17.5 17.5 0 1 1 35 0z" transform="matrix(.54632 0 0 .54632 16.976 -5.649)" fill="#33691e" fill-opacity="1" stroke="#fff" stroke-width="0" stroke-miterlimit="4" stroke-dasharray="none" stroke-dashoffset="0"/><path d="M45 31.5a17.5 17.5 0 1 1-35 0 17.5 17.5 0 1 1 35 0z" transform="matrix(.54632 0 0 .54632 37.256 -5.649)" fill="#01579b" fill-opacity="1" stroke="#fff" stroke-width="0" stroke-miterlimit="4" stroke-dasharray="none" stroke-dashoffset="0"/><path d="M45 31.5a17.5 17.5 0 1 1-35 0 17.5 17.5 0 1 1 35 0z" transform="matrix(.54632 0 0 .54632 6.976 14.79)" fill="#cfd8dc" fill-opacity="1" stroke="#fff" stroke-width="0" stroke-miterlimit="4" stroke-dasharray="none" stroke-dashoffset="0"/><path d="M45 31.5a17.5 17.5 0 1 1-35 0 17.5 17.5 0 1 1 35 0z" transform="matrix(.54632 0 0 .54632 26.976 14.79)" fill="#37474f" fill-opacity="1" stroke="#fff" stroke-width="0" stroke-miterlimit="4" stroke-dasharray="none" stroke-dashoffset="0"/><path d="M45 31.5a17.5 17.5 0 1 1-35 0 17.5 17.5 0 1 1 35 0z" transform="matrix(.54632 0 0 .54632 -3.304 35.23)" fill="#48e3e3" fill-opacity="1" stroke="#fff" stroke-width="0" stroke-miterlimit="4" stroke-dasharray="none" stroke-dashoffset="0"/><path d="M45 31.5a17.5 17.5 0 1 1-35 0 17.5 17.5 0 1 1 35 0z" transform="matrix(.54632 0 0 .54632 16.976 35.23)" fill="#cc96e1" fill-opacity="1" stroke="#fff" stroke-width="0" stroke-miterlimit="4" stroke-dasharray="none" stroke-dashoffset="0"/><path d="M45 31.5a17.5 17.5 0 1 1-35 0 17.5 17.5 0 1 1 35 0z" transform="matrix(.54632 0 0 .54632 37.256 35.23)" fill="#fea864" fill-opacity="1" stroke="#fff" stroke-width="0" stroke-miterlimit="4" stroke-dasharray="none" stroke-dashoffset="0"/></svg>